<?xml version="1.0" encoding="UTF-8"?>
<svg viewBox="0 0 1587.4 1122.5" xmlns="http://www.w3.org/2000/svg">
 <defs>
  <linearGradient id="da" x1=".42553" x2="-3e-6" y1=".25641" y2=".076933">
   <stop stop-color="#4f5f11" offset="0"/>
   <stop stop-color="#4f5f11" stop-opacity="0" offset="1"/>
  </linearGradient>
  <linearGradient id="dn" x1=".85714" x2=".28572" y1=".50001" y2=".32258">
   <stop stop-color="#698212" offset="0"/>
   <stop stop-color="#698212" stop-opacity="0" offset="1"/>
  </linearGradient>
  <linearGradient id="cz" x1=".40131" x2=".078942" y1=".36458" y2=".14583">
   <stop stop-color="#647912" offset="0"/>
   <stop stop-color="#647912" stop-opacity="0" offset="1"/>
  </linearGradient>
  <linearGradient id="cx" x1=".62878" x2=".74999" y1=".375" y2=".82812">
   <stop stop-color="#556a07" offset="0"/>
   <stop stop-color="#556a07" stop-opacity="0" offset="1"/>
  </linearGradient>
  <linearGradient id="cw" x1=".79231" x2=".23078" y1=".71876" y2=".32814">
   <stop stop-color="#63712e" offset="0"/>
   <stop stop-color="#63712e" stop-opacity="0" offset="1"/>
  </linearGradient>
  <linearGradient id="cy" x1=".50982" x2=".39216" y1=".35157" y2=".80471">
   <stop stop-color="#617612" offset="0"/>
   <stop stop-color="#617612" stop-opacity="0" offset="1"/>
  </linearGradient>
  <linearGradient id="db" x1=".33332" x2=".066659" y1=".41404" y2=".10936">
   <stop stop-color="#4f5f11" offset="0"/>
   <stop stop-color="#4f5f11" stop-opacity="0" offset="1"/>
  </linearGradient>
  <linearGradient id="dh" x1=".76239" x2=".5" y1=".13969" y2=".47099">
   <stop stop-color="#9d7b5d" offset="0"/>
   <stop stop-color="#9d7b5d" stop-opacity="0" offset="1"/>
  </linearGradient>
  <linearGradient id="dc" x1=".73466" x2=".25506" y1=".8281" y2=".10935">
   <stop stop-color="#586e07" offset="0"/>
   <stop stop-color="#586e07" stop-opacity="0" offset="1"/>
  </linearGradient>
  <linearGradient id="dg" x1=".20936" x2=".73278" y1=".13999" y2=".61438">
   <stop stop-color="#c1aa95" stop-opacity=".329" offset="0"/>
   <stop stop-color="#c1aa95" offset=".15"/>
   <stop stop-color="#c1aa95" offset=".85"/>
   <stop stop-color="#c1aa95" stop-opacity=".478" offset="1"/>
  </linearGradient>
  <linearGradient id="de" x1=".5645" x2=".99996" y1=".69526" y2=".4999">
   <stop stop-color="#5e6c25" offset="0"/>
   <stop stop-color="#5e6c25" stop-opacity="0" offset="1"/>
  </linearGradient>
  <linearGradient id="dd" x1=".59485" x2=".060374" y1=".66409" y2=".3594">
   <stop stop-color="#5b6e12" offset="0"/>
   <stop stop-color="#5b6e12" stop-opacity="0" offset="1"/>
  </linearGradient>
  <linearGradient id="df" x1=".45834" x2=".44446" y1=".63283" y2=".078147">
   <stop stop-color="#647522" offset="0"/>
   <stop stop-color="#647522" stop-opacity="0" offset="1"/>
  </linearGradient>
  <linearGradient id="cv" x1=".35484" x2=".072582" y1=".51562" y2="1">
   <stop stop-color="#677f0d" offset="0"/>
   <stop stop-color="#677f0d" stop-opacity="0" offset="1"/>
  </linearGradient>
  <linearGradient id="ck" x1=".82143" x2=".96326" y1=".19564" y2=".070858">
   <stop stop-color="#404e09" offset="0"/>
   <stop stop-color="#404e09" stop-opacity="0" offset="1"/>
  </linearGradient>
  <linearGradient id="cu" x1=".61865" x2=".20341" y1=".3047" y2=".79688">
   <stop stop-color="#5d6931" offset="0"/>
   <stop stop-color="#5d6931" stop-opacity="0" offset="1"/>
  </linearGradient>
  <linearGradient id="cj" x1=".86993" y1=".14014" y2=".016046">
   <stop stop-color="#4d5721" offset="0"/>
   <stop stop-color="#4d5721" stop-opacity="0" offset="1"/>
  </linearGradient>
  <linearGradient id="ch" x1=".5" x2=".52867" y1=".11548" y2="-.024604">
   <stop stop-color="#435014" offset="0"/>
   <stop stop-color="#435014" stop-opacity="0" offset="1"/>
  </linearGradient>
  <linearGradient id="cg" x1=".91654" y1=".075884">
   <stop stop-color="#3d4616" offset="0"/>
   <stop stop-color="#3d4616" stop-opacity="0" offset="1"/>
  </linearGradient>
  <linearGradient id="ci" x1=".88476" x2="1.0165" y1=".093792">
   <stop stop-color="#4f5f11" offset="0"/>
   <stop stop-color="#4f5f11" stop-opacity="0" offset="1"/>
  </linearGradient>
  <linearGradient id="cl" x1=".82388" y1=".11299" y2=".007906">
   <stop stop-color="#3b4a02" offset="0"/>
   <stop stop-color="#3b4a02" stop-opacity="0" offset="1"/>
  </linearGradient>
  <linearGradient id="ct" x1=".27366" x2=".89998" y1=".17183" y2=".67964">
   <stop stop-color="#5b700e" offset="0"/>
   <stop stop-color="#5b700e" stop-opacity="0" offset="1"/>
  </linearGradient>
  <linearGradient id="cs" x1=".39999" x2=".033319" y1=".47653" y2=".4531">
   <stop stop-color="#4f5f11" offset="0"/>
   <stop stop-color="#4f5f11" stop-opacity="0" offset="1"/>
  </linearGradient>
  <linearGradient id="cn" x1=".22777" x2=".027378" y1=".1393">
   <stop stop-color="#435302" offset="0"/>
   <stop stop-color="#435302" stop-opacity="0" offset="1"/>
  </linearGradient>
  <linearGradient id="cr" x1=".40322" x2=".12904" y1=".40789" y2=".10525">
   <stop stop-color="#546909" offset="0"/>
   <stop stop-color="#546909" stop-opacity="0" offset="1"/>
  </linearGradient>
  <linearGradient id="cp" x1=".078781" x2=".009158" y1=".29653" y2=".39369">
   <stop stop-color="#465708" offset="0"/>
   <stop stop-color="#465708" stop-opacity="0" offset="1"/>
  </linearGradient>
  <linearGradient id="co" x1=".11735" x2=".008674" y1=".084293">
   <stop stop-color="#4f5e16" offset="0"/>
   <stop stop-color="#4f5e16" stop-opacity="0" offset="1"/>
  </linearGradient>
  <linearGradient id="cq" x1=".61115" x2=".6667" y1=".44539" y2=".22663">
   <stop stop-color="#3a4806" offset="0"/>
   <stop stop-color="#3a4806" stop-opacity="0" offset="1"/>
  </linearGradient>
  <linearGradient id="di" x1=".67786" x2=".5" y1=".22586" y2=".5">
   <stop stop-color="#876b3d" offset="0"/>
   <stop stop-color="#876b3d" stop-opacity="0" offset="1"/>
  </linearGradient>
  <linearGradient id="bx" x1=".7" y1=".5625" y2="1">
   <stop stop-color="#556905" offset="0"/>
   <stop stop-color="#556905" stop-opacity="0" offset="1"/>
  </linearGradient>
  <linearGradient id="dj" x1=".75445" x2=".46067" y1=".32792" y2=".56473">
   <stop stop-color="#897757" offset="0"/>
   <stop stop-color="#897757" stop-opacity="0" offset="1"/>
  </linearGradient>
  <linearGradient id="bw" y2="1">
   <stop stop-color="#a68363" stop-opacity="0" offset="0"/>
   <stop stop-color="#a68363" stop-opacity=".429" offset=".1"/>
   <stop stop-color="#a68363" offset=".5"/>
   <stop stop-color="#a68363" stop-opacity=".604" offset=".9"/>
   <stop stop-color="#a68363" stop-opacity="0" offset="1"/>
  </linearGradient>
  <linearGradient id="bu" x1=".10128" x2="0" y1=".072524">
   <stop stop-color="#465311" offset="0"/>
   <stop stop-color="#465311" stop-opacity="0" offset="1"/>
  </linearGradient>
  <linearGradient id="bt" x1=".13207" x2=".030819" y1=".12075" y2=".030488">
   <stop stop-color="#465702" offset="0"/>
   <stop stop-color="#465702" stop-opacity="0" offset="1"/>
  </linearGradient>
  <linearGradient id="bv" x1=".2653" x2=".05112" y1=".13046">
   <stop stop-color="#4c5e04" offset="0"/>
   <stop stop-color="#4c5e04" stop-opacity="0" offset="1"/>
  </linearGradient>
  <linearGradient id="by" x1=".55357" x2=".23214" y1=".34616" y2=".13462">
   <stop stop-color="#556905" offset="0"/>
   <stop stop-color="#556905" stop-opacity="0" offset="1"/>
  </linearGradient>
  <linearGradient id="cm" x1=".39394" x2="0" y1=".60001" y2="1">
   <stop stop-color="#6d8316" offset="0"/>
   <stop stop-color="#6d8316" stop-opacity="0" offset="1"/>
  </linearGradient>
  <linearGradient id="ce" x1=".625" y1=".41379" y2="1e-6">
   <stop stop-color="#5e6f18" offset="0"/>
   <stop stop-color="#5e6f18" stop-opacity="0" offset="1"/>
  </linearGradient>
  <linearGradient id="bz" x1=".40625" x2=".21875" y1=".47561" y2=".14634">
   <stop stop-color="#556905" offset="0"/>
   <stop stop-color="#556905" stop-opacity="0" offset="1"/>
  </linearGradient>
  <linearGradient id="cd" x1=".3" x2=".1" y1=".56452" y2=".91936">
   <stop stop-color="#495714" offset="0"/>
   <stop stop-color="#495714" stop-opacity="0" offset="1"/>
  </linearGradient>
  <linearGradient id="cb" x1=".41666" x2=".75" y1=".64122" y2="1.1527">
   <stop stop-color="#5e730d" offset="0"/>
   <stop stop-color="#5e730d" stop-opacity="0" offset="1"/>
  </linearGradient>
  <linearGradient id="ca" x1=".59722" y1=".38" y2=".28">
   <stop stop-color="#617903" offset="0"/>
   <stop stop-color="#617903" stop-opacity="0" offset="1"/>
  </linearGradient>
  <linearGradient id="cc" x1=".23076" x2=".72115" y1=".5" y2=".94922">
   <stop stop-color="#719200" offset="0"/>
   <stop stop-color="#719200" stop-opacity="0" offset="1"/>
  </linearGradient>
  <linearGradient id="bs" x1=".085963" x2="0" y1=".038671" y2=".015287">
   <stop stop-color="#3d4c00" offset="0"/>
   <stop stop-color="#3d4c00" stop-opacity="0" offset="1"/>
  </linearGradient>
  <linearGradient id="bi" x1=".19597" x2=".056805" y1=".8174" y2="1.0859">
   <stop stop-color="#3d4c00" offset="0"/>
   <stop stop-color="#3d4c00" stop-opacity="0" offset="1"/>
  </linearGradient>
  <linearGradient id="br" x1=".12948" x2=".036584" y1=".090452" y2="-.017402">
   <stop stop-color="#536702" offset="0"/>
   <stop stop-color="#536702" stop-opacity="0" offset="1"/>
  </linearGradient>
  <linearGradient id="bh" x1=".69096" x2=".95729" y1=".79677" y2="1">
   <stop stop-opacity=".432" offset="0"/>
   <stop stop-opacity="0" offset="1"/>
  </linearGradient>
  <linearGradient id="dl" x1=".68701" x2=".46114" y1=".23415" y2=".52495">
   <stop stop-color="#c0a178" offset="0"/>
   <stop stop-color="#c0a178" stop-opacity="0" offset="1"/>
  </linearGradient>
  <linearGradient id="dk" x1=".58958" x2=".45028" y1=".27464" y2=".5">
   <stop stop-color="#ac8849" offset="0"/>
   <stop stop-color="#ac8849" stop-opacity="0" offset="1"/>
  </linearGradient>
  <linearGradient id="dm" x1=".68552" x2=".5" y1=".24187" y2=".44272">
   <stop stop-color="#a57839" offset="0"/>
   <stop stop-color="#a57839" stop-opacity="0" offset="1"/>
  </linearGradient>
  <linearGradient id="bj" x1=".8402" x2="1.0155" y1=".77487" y2="1.0219">
   <stop stop-color="#556905" offset="0"/>
   <stop stop-color="#283008" offset="1"/>
  </linearGradient>
  <linearGradient id="bq" x1=".73138" x2=".90057" y1=".089288" y2="-.036312">
   <stop stop-color="#5a6c19" offset="0"/>
   <stop stop-color="#5a6c19" stop-opacity="0" offset="1"/>
  </linearGradient>
  <linearGradient id="bp" x1=".79804" x2=".9262" y1=".089782" y2=".004199">
   <stop stop-opacity=".125" offset="0"/>
   <stop stop-opacity="0" offset="1"/>
  </linearGradient>
  <linearGradient id="bk" x1=".10193" x2=".008074" y1=".8242" y2=".95627">
   <stop stop-color="#3d4c00" offset="0"/>
   <stop stop-color="#3d4c00" stop-opacity="0" offset="1"/>
  </linearGradient>
  <linearGradient id="bo" x1=".67271" x2=".6555" y1=".075357" y2="-.009699">
   <stop stop-color="#495a05" offset="0"/>
   <stop stop-color="#495a05" stop-opacity="0" offset="1"/>
  </linearGradient>
  <linearGradient id="bm" x1=".90038" y1=".44727" y2=".56064">
   <stop stop-color="#475807" offset="0"/>
   <stop stop-color="#475807" stop-opacity="0" offset="1"/>
  </linearGradient>
  <linearGradient id="bl" x1=".1118" x2="-.043621" y1=".35421" y2=".44241">
   <stop stop-color="#465705" offset="0"/>
   <stop stop-color="#465705" stop-opacity="0" offset="1"/>
  </linearGradient>
  <linearGradient id="bn" x1=".9083" y1=".29284" y2=".30067">
   <stop stop-color="#516508" offset="0"/>
   <stop stop-color="#516508" stop-opacity="0" offset="1"/>
  </linearGradient>
  <linearGradient id="cf" x1=".76991" x2=".98531" y1=".14811" y2=".05924">
   <stop stop-color="#4f5e16" offset="0"/>
   <stop stop-color="#4f5e16" stop-opacity="0" offset="1"/>
  </linearGradient>
 </defs>
 <g fill-rule="evenodd">
  <path d="m639.32 545.98c2.8462-7.0586 3.4502-12.965 2.3909-17.077-2.8114-10.916-4.7722-20.466-11.954-28.007-4.2031-4.4132-12.922-6.6032-17.761-6.1478-2.6755 2.1631-5.6924 3.131-8.5388 3.4155 0.62622 3.3585 2.7894 5.351 5.4648 6.4894-0.91071 2.1062-2.1632 3.3586-3.757 4.7817 0.2276 3.5293 0.45538 7.0587 0.68304 10.588 1.5939 0.797 3.1879 1.5939 4.7818 2.3909l-2.7325 3.4155c3.3016 1.7076 6.6034 3.4155 9.905 5.1232v8.1973c5.2371 3.4154 12.865 6.4895 18.102 9.9049l3.4155-3.0741z" fill="#4f5f11"/>
  <path d="m637.27 545.3c-24.705-0.22424-128.66 7.9532-142.77 13.918-4.5402-4.7938-6.8824-2.171-15.863 0.74426-3.6846-1.7665-6.2031-6.9603-7.1726-10.93 1.9874-2.5735 2.9728-4.8657 4.2075-6.5515-2.01-1.953-3.0512-1.5832-5.4742-2.1603 2.96-12.979 19.424-27.625 25.453-29.241 0.89886 1.7263 1.2709 2.5444 2.4562 3.6991 0.038086-2.8909 2.963-4.3737 6.1718-6.9181 5.7808-0.43103 23.45-4.037 28.475-4.2302 27.262-1.0486 55.871-1.2203 77.873 15.028 12.091 8.929 18.216 15.028 26.641 26.641z" fill="#3d4c00"/>
  <path d="m493.82 566.47c9.1028-14.01 31.987-21.012 67.794-25.536 35.807-4.5238 70.192 7.4338 70.192 7.4338l-6.831 3.7571c-25.958-0.22778-50.254 5.7703-71.384 15.028-3.688-0.07251-7.148 0.25293-9.6424 0.59363-0.48779 2.3475-1.4615 3.7714-3.1657 5.4688-6.1564 1.9225-16.506 7.1312-22.372 11.015-4.5678-1.9009-9.3771-4.4056-12.979-7.5142-2.8654 0.99609-5.7716 3.7831-7.514 7.5142-2.453-5.4373-3.5191-11.087-4.0986-17.761z" fill="#465313"/>
  <path d="m640.69 571.94c11.702 42.518 26.227 71.868 38.005 112.1 5.7549 19.656 8.77 43.656 6.8654 63.211-1.5109 15.511-5.9336 33.948-12.765 48.749-4.2986-3.0154-9.0803-5.5477-14.345-6.148-4.2986 3.9676-9.0804 6.003-14.345 6.831-2.4152-6.762-4.3473-15.456-3.1397-23.184 2.5323-1.7111 5.3063-5.8373 6.1479-10.93-3.0292-2.3389-5.5753-9.7496-5.4648-15.711 3.9814-5.6234 5.0647-12.213 6.148-20.493-2.5046-12.068-5.4645-34.375-4.8574-49.729 0.63538-16.071-3.7742-81.854-7.7143-106.74l5.4648 2.0493z" fill="#3b4510"/>
  <path d="m637.96 569.89c8.1973 29.146 17.408 59.933 23.427 89.602 4.8168 23.744 10.738 45.038 18.242 66.828 4.3832 3.3586 5.8633 6.3756 7.5141 9.5634 10.502 2.1389 18.105 5.7268 30.056 13.662 1.8216-5.6925 3.6433-10.419 5.4649-17.077-6.6033-17.305-12.894-34.736-19.81-51.916-7.201-17.886-14.03-36.017-22.542-53.282-7.6544-15.524-24.041-39.091-34.169-52.813l-8.183-4.5674z" fill="#555f2b"/>
  <path d="m649.57 571.26c26.641 15.939 53.908 31.754 77.99 50.715 15.537 12.234 32.613 29.965 43.284 46.734 13.238 20.802 21.859 40.765 30.374 63.08-2.3909 1.6508-5.6356 1.7646-8.1971 1.3662 0.91083 2.277 1.8215 4.554 2.7323 6.8309-6.2047 8.5956-9.8478 19.07-12.979 29.373-2.9601 0.797-6.2617 0.56921-8.8802-0.6831-2.5616 2.391-3.5863 5.1234-4.0986 8.1973-2.7893-2.2201-3.8708-5.1233-4.7817-8.1973-3.1309 0.74011-4.8954 1.9924-6.831 4.7817-3.3016-7.9695-4.554-15.768-4.7816-23.908-2.3339 1.0245-5.1802 1.3662-7.514 0 0-9.9618-3.074-16.508 1.3661-25.275-14.573-16.565-18.558-36.887-26.641-56.697-11.1-12.353-21.33-20.566-30.739-34.155-13.019-18.801-25.73-38.367-39.62-56.014l-0.6829-6.1478z" fill="#3e4812"/>
  <path d="m1077.5 898.3c15.41 1.5852 31.282 1.7892 46.232 1.3024-52.033-34.511-89.814-75.536-147.81-103.53-60.649-29.277-154.58-74.229-209.02-103.53-18.936-10.193-83.103-62.261-95.882-83.022-4.7818-7.7681-19.194-31.996-6.9999-38.744-12.891-12.544-22.139-20.403-33.209-30.604 6.9456 22.573 18.399 56.216 31.092 75.208 16.175 24.201 32.168 35.505 55.511 54.371 24.191 19.552 49.696 38.158 76.836 53.394 59.464 33.383 128.44 67.124 182.97 92.463 21.264 9.8815 88.262 60.886 100.28 82.696z" fill="#3f3124"/>
  <path d="m1071.2 883.69c-22.201-19.781-73.708-59.117-88.022-66.675-37.791-19.954-134.13-61.014-204.43-104.53-19.203-11.886-37.819-25.154-55.822-38.744l-43.227-37.357c-14.089-12.808-26.577-35.009-30.419-46.75 1.9924-0.6759 3.9847-1.3518 5.9772-2.0278l31.38 41.946 38.851 41.52c17.184 14.8 36.591 28.167 56.676 39.278 72.525 40.122 158.51 80.418 207.57 106.57 26.294 14.018 63.177 43.218 81.468 66.766z" fill-opacity=".401" stroke-width=".312"/>
  <path d="m642.2 545.15c17.228-4.3472 34.198-10.615 51.684-13.042 16.165-2.243 32.956-2.0033 49.268-0.96619 11.542 0.73389 23.829 2.2543 34.295 6.2794l14.974 12.076-154.57 12.559 4.3472-16.906z" fill="#4c5d0c"/>
  <path d="m623.12 533.08c2.0931 2.6969 4.4279 4.186 9.4191 7.0038 3.0591-1.7711 6.7218-5.3535 17.509-2.0527-0.4024 2.7371-0.8739 4.2295 0.60406 6.6415 2.5143 4.1036 3.22 5.9573 5.5546 10.143 5.3132 4.7498 10.626 9.4995 15.94 14.249 0.84522 6.1586 0.12085 11.955-2.8982 16.664-5.5548 1.5295-11.11 3.0591-16.664 4.5886-5.2326 1.6101-11.19 6.6013-15.698 12.076-7.0844-2.0127-14.169-4.0253-21.253-6.0378-7.3259-7.809-14.652-15.618-21.978-23.427 8.3723-9.0969 12.398-18.435 12.8-29.464 4.0654-5.1523 8.9762-8.7346 16.664-10.385z" fill="#51561a"/>
  <path d="m626.5 546.6c-13.576 1.2858-24.813 2.8727-38.849 3.6864-13.738 0.79639-30.881 1.5337-44.472 1.1438-1.8598 0.44873-6.1041 1.7848-7.8849 2.438 0.56128 1.1804 1.9946 1.9553 1.8319 3.0891-2.3509-1.2229-3.5435-1.1307-4.4988-1.6744-3.1379 1.5824-5.1548 7.1374-4.5303 8.1511 0.75494-0.67212 2.0222-1.7712 3.9726-2.1017-1.8809 0.78052-3.3776 2.3297-4.2338 3.7935 1.5588 1.8053 10.154 2.1882 12.445 5.1425 1.4174-1.1123 1.8955-2.481 1.6906-4.1057 1.0905 1.7858 1.2192 2.8049 0.96606 4.5888 4.3472 0.51721 8.5237 0.35132 13.042-0.24146 17.235-7.4578 48.218-17.306 65.282-20.238l5.2396-3.6713z" fill="url(#cf)"/>
  <path d="m622.24 548.71c-25.047 6.3756-48.04 11.365-73.775 19.468-28.688 9.0336-49.347 18.266-74.513 37.991-16.131 12.644-34.164 34.843-40.931 54.569 3.9847 0.91077 16.679-2.6185 21.005-5.1232-0.34155-2.3339-0.34155-4.6678 0.17078-7.8556 2.6755 3.017 7.4002 2.4478 11.613 1.3662 5.5786-3.6432 12.523-7.1156 19.81-8.8804 8.0833 0.73999 15.313 0.11389 23.225-1.3662 3.9278-5.5216 9.3926-9.5065 16.394-12.979 11.328-2.5615 25.73-10.759 36.887-14.857 1.3662-6.4325 11.613-17.476 19.127-23.396 6.2617 2.7323 14.573 1.7076 21.859 0 1.0817-11.954 9.6773-26.47 19.127-38.937z" fill="url(#cg)"/>
  <path d="m623.61 572.62c-6.2319 29.775-12.465 71.361-15.028 107.25-1.7629 24.682 0.51648 50.985 4.9474 74.941 2.8554 15.436 8.3764 28.662 16.912 43.235 2.9601-2.5048 5.9202-5.0093 8.8802-7.514 1.5801 2.5599 3.4017 3.6708 5.4648 4.7817 1.097-4.1677 2.6771-6.4032 5.4647-8.8804 0.13824-13.945-0.93121-24.992-5.6233-29.277 2.7876-1.5453 2.1941-3.0907 4.2572-4.8776-3.2708-6.148 1.5043-36.308 1.3661-48.5-2.9601-4.5541-5.9202-9.1079-8.8802-13.662 2.8 0.31067 6.9119-0.82788 8.8802-3.4155 0.28296-6.3893-0.40015-12.296-2.0492-18.444l-5.4648-4.0986c4.4643-7.7004 6.0306-15.884 6.1479-25.275-9.0184-24.481-13.69-35.92-18.361-66.681l-6.914 0.4204z" fill="url(#ch)"/>
  <path d="m605.17 593.12c-16.195 23.618-31.725 47.823-46.451 72.408-11.46 19.133-22.074 38.859-32.106 58.746-2.9471 5.8426-5.2786 11.33-6.831 18.444 2.0493-0.6831 4.184-0.6831 6.148-2.0493-1.8216 6.148-2.6185 12.893-5.4648 18.444 0.82544 7.7418 4.1271 14.203 4.7817 21.176 4.0416 3.3015 9.2787 4.4685 13.662 4.7816 5.0663-3.6146 12.518-6.8245 15.711-13.662 3.4667-7.4221 8.1402-14.459 12.979-21.176-2.1061-5.2372-2.8462-10.047-2.7323-15.711 1.5654 2.9315 4.3263 6.9733 7.514 7.514 2.7324-5.4648 3.8424-11.613 8.1971-16.394 7.1416-17.278 13.076-35.038 17.078-53.282 4.623-4.8574 6.3479-11.164 12.179-18.195 2.8495-12.123 7.1482-28.594 12.413-37.819-1.249-15.484-0.56592-29.76 2.0493-46.451-6.3756 7.7418-13.463 14.965-19.127 23.225z" fill="url(#ci)"/>
  <path d="m624.06 553.98c-22.625 19.555-51.353 43.947-67.392 59.63-12.588 12.308-45.861 63.962-51.232 75.824-5.5582 12.274-13.662 53.054-12.979 60.796 4.3539 0.84168 7.7418 3.6156 11.613 6.1478 5.0922-3.8156 8.7354-9.5632 10.93-14.345-2.3737-4.3263-2.8153-8.6526-2.0493-12.979 5.2371 0.62109 12.648-2.622 17.885-5.1404 2.1665-8.5216 9.2318-23.329 11.323-32.596 4.7817-2.277 12.462-1.6559 17.243-3.933 2.2218-9.1217 5.168-18.244 9.5634-26.641 11.806-4.4435 18.782-19.03 25.275-19.127 1.4006-8.9354 7.1483-16.905 14.345-23.908-1.9254-13.192 2.4286-38.46 15.477-63.728z" fill="url(#cj)"/>
  <path d="m624.29 563.06c-34.838 19.582-41.422 15.305-73.604 37.57-6.9822 4.8307-39.563 36.204-43.889 43.718 3.6432-2.0493 7.9694-2.5616 10.93-6.148 0.51233 2.6755 2.2201 4.4972 4.0986 5.4648 3.6432-4.6678 7.9695-7.2864 12.979-8.8802 6.3756 0.51221 14.288-2.0493 21.176-4.0986 20.891-23.055 45.54-45.084 68.31-67.627z" fill="url(#ck)"/>
  <path d="m614.73 585.6c-5.388 22.311-25.74 49.694-34.166 81.258-8.4265 31.564-10.966 65.195-10.918 88.833 3.4155-2.0493 6.831-4.0985 10.246-6.1478-2.277 7.9695-5.4647 38.937-4.7816 46.451 4.2124 3.1877 6.717 9.1079 7.514 15.711 2.7048 1.649 5.4096 2.0907 9.5634 2.0493 2.4356-7.728 9.2185-14.731 10.93-23.908 4.4231-2.0974 9.4756-8.8422 13.491-15.37-2.1632-7.9695-4.8388-16.28-4.611-24.25 1.8216-1.594 3.6431-3.1877 5.4647-4.7816-0.65973-16.922 6.143-52.176 8.3209-88.944 2.1777-36.767-6.3072-67.953 2.6088-88.662l-13.662 17.761z" fill="url(#cl)"/>
  <path d="m630.51 563.82c18.558 21.518 36.022 38.854 47.065 64.128 2.3908 12.865 3.0739 25.389 2.0493 37.57 3.8708 4.6677 8.0834 8.9941 13.662 10.93-1.1386 5.0094-2.277 10.019-3.4156 15.028 4.2124 3.4155 12.068 10.36 14.345 17.077-3.5293 6.945-5.0094 13.207-5.4648 21.859 7.0587 2.8463 33.472 16.053 39.62 21.859 4.7818-2.9602 8.5388-7.6279 10.246-12.979-0.91083-8.1971-13.447-52.952-20.493-66.261-9.3486-17.658-24.126-35.865-36.253-51.715-16.791-21.948-38.336-39.026-56.78-59.747l-4.5816 2.2494z" fill="url(#cn)"/>
  <path d="m648.89 563.74c22.77 5.2371 47.079 6.6858 68.31 15.711 25.903 11.012 50.628 27.3 73.092 44.401 12.83 9.7673 21.859 24.136 32.789 36.204-0.56921 5.6925 0.22766 11.556 1.3662 17.078-3.1879 1.0247-6.3756 0.85388-9.5635 0-0.17078 3.814 0.6831 7.9695 2.0494 10.93-2.0494 3.2448-5.294 4.7817-8.1971 6.148 0.96765 5.18-1.1386 8.8232-0.68317 12.979-2.3339 1.594-4.6678 1.8216-7.514 2.7324-1.0815-3.2446-0.79688-7.0018-2.7324-10.246-1.8215-0.45544-3.6431-0.91077-5.4647-1.3661-5.351-8.4818-5.5788-16.622-12.979-25.958-3.1879-0.45532-6.3756-0.91077-9.5635-1.3662-4.7247-5.8633-9.2787-12.068-11.612-19.127-5.8633-1.1954-11.385-1.0247-17.078 0-3.4155-8.1973-6.831-16.394-10.246-24.592-4.2159 1.9459-6.4996 2.2012-10.957 2.9396-6.7552-7.7003-15.684-20.472-19.783-28.897-6.6171-3.3121-13.476-3.4845-19.127-3.4154-8.5284-15.249-21.404-22.77-32.106-34.155z" fill="url(#co)"/>
  <path d="m641.37 549.4c25.958-4.554 37.232-6.9882 63.382-9.7978 28.952-3.1106 62.656-5.929 90.818-1.9249 19.883 2.827 48.908 10.356 67.806 18.554-2.5046 1.1384-5.0093 2.277-7.5139 3.4154 2.3322 4.0572 3.819 9.4426 4.0984 14.345-12.425-3.3523-24.367-4.0481-36.55-3.8984-2.3895 2.438-4.7789 4.876-7.1685 7.314-4.572-0.30456-7.8159-1.696-10.818-3.4497-9.1956 2.876-17.667 7.5634-24.689 12.613l-25.289-7.797c-4.4848 5.3201-9.9358 8.9495-17.078 11.613-2.2285-3.5374-4.4568-7.0748-6.6854-10.612-14.366 2.951-28.732 4.6946-44.547 3.7814-10.585-11.305-27.449-21.885-43.347-28.118-0.80682-2.0122-1.6138-4.0243-2.4209-6.0365z" fill="url(#cp)"/>
  <path d="m631.33 561.09l-2.6568 2.6567-4.5886-0.7246 0.9661 3.6227 3.1396 2.8981 6.5208-2.6565-3.381-5.7964z" fill="url(#cq)"/>
  <path d="m638.33 560.61l2.8983 9.1775 4.5887-2.6567-4.3473-3.3811 2.8983-2.1736-6.0379-0.9661z" fill="url(#cr)"/>
  <path d="m633.5 558.43l4.3472 3.6228-1.4491-4.8303 5.0717 0.7246-2.8982-7.2455-5.0717 7.7284z" fill="url(#cs)"/>
  <path d="m626.98 553.84l-4.8303 3.1395-6.2793-1.6906 3.8643-3.6226-2.6566-2.1736 8.2113 0.9659 1.6907 3.3812z" fill="url(#ct)"/>
  <path d="m629.4 548.77l5.3132-6.7623 1.9322-7.2454 3.8641-2.8982 2.4152 7.7284 3.1397 1.4491-6.0379 1.2075 2.6567 1.4491-7.9699 2.4152-3.1395 4.1057-2.1736-1.4491z" fill="url(#cu)"/>
  <path d="m630.85 552.88l2.8981-7.7284 5.0718 2.1737 7.0038 0.2416-4.1057 2.6566-10.868 2.6565z" fill="url(#cv)"/>
  <path d="m632.05 553.6l-5.7963 2.4152 1.449 3.3811 3.3813 3.1396 4.1057-0.9659-3.1396-2.4153 2.8981-1.6904-2.8981-3.8643z" fill="url(#cw)"/>
  <path d="m612.49 540.56l6.5208 3.6227 2.1736-2.6566 0.483 5.5547 5.0719 1.6907-0.2417-2.8982-0.7245-6.2793-6.5208-2.415-0.9661-2.4152-5.7962 5.7963z" fill="url(#cx)"/>
  <path d="m624.81 545.15l5.7962-1.932 0.7246-5.0718-3.3812-1.932-0.483 3.8641-3.1398-2.6566 0.4832 7.7283z" fill="url(#cy)"/>
  <path d="m647.27 563.75l7.4868 7.0038 5.0718-1.4491-0.2416 3.6227 6.0378-1.4491-2.1737-8.2114-6.5207 1.4491-4.8303-1.932 1.2075-1.4491-6.0377 2.4152z" fill="url(#cz)"/>
  <path d="m647.27 567.37l1.449 5.7964 4.1058-0.483v4.1057l4.8303-0.2416 0.9659-4.5886-4.3472-4.5889h-7.0038z" fill="url(#da)"/>
  <path d="m638.57 572.44l-0.2415 10.868 2.8983-1.9321 3.8643 4.8303 2.8981-2.8982-9.4191-10.868z" fill="url(#db)"/>
  <path d="m633.74 570.99l-3.8641 5.0719h2.6567l-0.7246 6.0377 3.8642-1.6906 2.6566-5.0718-4.5887-4.3473z" fill="url(#dc)"/>
  <path d="m634.71 563.99v6.0378h3.6227v3.8643l6.7625 2.1736 0.4828-4.8303-10.868-7.2454z" fill="url(#dd)"/>
  <path d="m622.91 559.55l-5.3133 1.6904 0.9662 1.6907-5.3133 2.1736 2.1736 2.6567 3.1397 2.6566 1.9319-4.1057 3.1396-2.1737-0.7245-4.5886z" fill="url(#de)"/>
  <path d="m622.88 559.64l-5.3134 1.6906 0.9662 1.6906-5.3134 2.1736 2.1736 2.6567 3.1398 2.6566 1.932-4.1057 3.1397-2.1736-0.7245-4.5887z" fill="none"/>
  <path d="m624.81 559.88l-3.6227 6.5209 1.2075 0.9659 0.9661 6.2793h5.3131l0.2417-5.3131-2.6567-3.3812-1.449-5.0718z" fill="url(#df)"/>
  <g stroke-width=".312">
   <path d="m620.79 585.69c-7.5425 30.597-17.468 60.835-22.628 91.791-3.6641 21.984-4.6963 44.686-3.8425 67.029 0.28473-22.272 1.5269-45.237 5.23-67.456 5.1202-30.721 14.409-60.91 21.24-91.364z" fill="#4d5f00"/>
   <path d="m658.5 591.64c20.638 22.077 41.975 43.917 56.151 69.435 10.981 19.766 15.442 43.85 19.321 66.416-2.6588-22.541-6.8502-47.28-17.796-66.983-14.211-25.58-36.245-47.619-57.676-68.867z" fill="#4f5e16"/>
   <path d="m619.3 531.04c-9.8196-9.9264-29.634-21.207-48.457-20.92-27.611 0.42065-53.83 12.737-75.568 29.032 21.774-17.398 48.348-30.048 75.674-30.312 18.187-0.17578 39.207 11.385 48.35 22.201z" fill="#4f5f11"/>
   <path d="m656.44 552.17c33.159-6.0483 68.053-12.185 102.04-12.381 27.779-0.16003 57.423 5.4078 83.252 11.314-25.687-6.9021-55.179-12.54-82.826-12.381-34.117 0.19653-69.591 6.404-102.46 13.449z" fill="#5e6f16"/>
   <path d="m598.16 557.07c-24.115 5.6887-54.029 13.065-76.723 23.858-21.85 10.392-45.309 26.239-56.755 40.906 12.231-14.318 35.543-29.708 57.523-40.162 22.563-10.732 52.171-18.112 75.955-24.602z" fill="#555f2b"/>
   <path d="m605.37 575.94c-15.183 7.4592-31.011 15.732-44.982 25.661-9.6775 6.8772-18.139 15.975-25.962 24.755 8.4278-8.2266 17.196-16.674 26.868-23.548 13.976-9.9315 29.308-18.856 44.076-26.868z" fill="#586712"/>
   <path d="m742.68 678.97c16.722 10.175 33.667 20.44 51.019 29.459 31.53 16.388 185.82 89.522 213.9 107.8 24.071 15.675 46.216 33.016 68.31 50.592-22.841-16.757-49.395-38.521-69.591-49.738-43.629-24.233-173.94-86.362-213.04-106.95-17.004-8.9482-34.582-20.493-50.592-31.166z" fill="url(#dg)"/>
  </g>
  <path d="m636.04 290.13c41.24 25.178 80.068 33.021 112.57 66.245 26.316 26.898 42.876 62.399 53.208 97.404 2.8918 9.7985 7.4759 36.515 7.2663 48.038-1.7796-5.019-3.7061-11.268-5.7046-16.615 2.8048 14.325 2.3898 41.129-3.2519 58.876-3.7489-6.0471-4.4016-12.094-5.2092-19.534-3.9069 2.8216-7.8138 5.6433-11.721 8.465 1.1459-3.8159 1.9821-9.9541 0.65112-15.628-6.2944 1.9535-12.589 3.907-18.883 5.8605-3.5942-10.264-5.4854-20.682-5.2093-31.255-6.0455-2.4163-10.388-2.9747-16.279-2.6046-3.7121-13.084-8.3531-47.995-9.5883-71.76-20.026-50.238-55.843-76.016-97.852-127.49z" fill="#3d4c00"/>
  <path d="m1122.5 911.32c20.942 2.174 31.41 2.6211 57.301 0.65112-22.41-23.767-40.729-47.319-59.092-72.115-41.989-56.697-98.758-116.24-157.09-164.9-63.976-53.372-128.59-102.06-191.44-151.72-39.599-31.291-69.248-75.928-96.37-117.86-10.644-16.456-15.64-38.378-16.93-57.301-0.66309-9.7275 7.3798-19.1 11.07-28.651-8.0308-6.5115-16.062-13.023-24.093-19.534-14.542 6.0774-29.085 12.155-43.627 18.232 12.589 19.534 26.387 38.418 37.767 58.604 6.8524 12.155 7.6179 27.095 15.465 38.581 22.106 32.358 43.818 66.957 71.952 94.905 32.532 32.316 71.39 58.497 105.81 88.394 20.058 17.42 39.645 34.604 60.069 51.604 43.036 35.823 83.001 71.475 121.76 109.39 46.73 45.709 88.778 98.383 107.44 151.72z" fill="#3f3124"/>
  <path d="m1046 753.66c-4.0834-2.4166-20.417 11.167-17.5 16 9.5 10.167 19 20.333 28.5 30.5-3.0834-4.75 13.333-18 18.5-13.5l-29.5-33z" fill="url(#dh)"/>
  <path d="m929.03 647.66c-5.5001-4.8332-22.25 10.833-15.25 18 8.3333 7.8334 17.667 15.417 26.5 22.75-4.4168-5.25 7.9168-23.25 14.5-19.5-9.1668-7.25-16.583-14-25.75-21.25z" fill="url(#di)"/>
  <path d="m985.64 729.05c-4.0358-4.596 12.435-22.45 16.884-18.384 13.167 12.667 26.687 25.333 39.5 38-3.3686-2.8186-21.056 13.101-17.707 17.354-12.833-12.5-27.434-23.586-38.677-36.97z" fill="url(#dj)"/>
  <path d="m923.75 644.13c-5.7474-3.8398-19.245 13.57-15.742 16.73-7.3319-4.9307-17.664-13.611-26.246-21.542-3.9589-3.7794 10.582-20.309 14.123-17.838 9.2883 7.2999 18.577 14.6 27.865 22.65z" fill="url(#dk)"/>
  <path d="m890.32 617.25c-4.128-1.2206-15.756 13.309-13.134 17.338-8.2564-7.6371-16.763-13.774-25.019-21.411-1.9156-3.0409 10.669-16.832 14.254-14.873 8.0498 6.3986 15.85 12.547 23.9 18.946z" fill="url(#dl)"/>
  <path d="m845.72 607.74c-1.8718-2.3782 10.756-15.506 13.884-14.384-7.2244-6.1921-15.198-11.884-22.423-18.076-4.1602-2.0027-15.57 10.995-14.731 12.992 7.5063 6.823 15.762 12.896 23.269 19.469z" fill="url(#dm)"/>
  <path d="m657.65 329.79c-0.41675 18.167 3.1788 46.356 11.25 64.375 4.3458 9.702 38.958 61.25 55.625 81.5l-78.5-70-21-85 32.625 9.125z" fill="url(#bh)"/>
  <path d="m612.91 242.87l-42.726 11.765-1.2385 40.25 15.48 47.68 38.684 21.058c6.0562-22.37 30.612-19.991 36.169-40.111l1.9306-32.342 13.623-32.819-15.481-13.004-46.442-2.4768z" fill="#253d06"/>
  <path d="m571.29 272.58c-27.779 5.2181-55.452 11.118-83.338 15.655-50.672 8.2428-95.186 22.852-125.24 44.662-22.28 16.17-50.801 47.425-53.871 53.871-1.4744 9.3807 1.6092 18.11 0.46045 27.166 2.4556-8.2878 2.6323-17.878 7.3669-24.863-0.76733 6.139-1.5347 12.278-2.3021 18.417 4.8509-6.6971 6.446-15.348 9.6691-23.022 0.46045 6.5995 0.089966 12.447 1.0557 18.659 1.7097-4.3563 3.6022-19.273 5.8508-27.868 3.1435 6.0062 4.6044 31.77 4.6044 31.77 3.53-12.125 5.5948-24.575 10.59-36.374-1.972 9.9064-1.014 17.208 0.9209 25.324 0.37665-6.6554 2.0555-11.846 5.5252-17.036 0.54871 5.4089 2.5626 10.004 5.0648 14.273 1.5347-9.8225 1.4416-19.808 4.6043-29.468l2.3022 20.259c3.4741-7.7205 8.0878-13.976 13.352-20.72-1.7628 7.3949-2.386 13.813-1.3813 20.72l11.511-27.626c-1.5348 7.2135-2.1487 13.506-1.8417 20.259 4.6043-8.3645 6.446-17.65 11.05-25.784-0.84418 7.8274-1.2278 14.043 0.92084 20.72 4.9112-8.1344 10.743-14.427 17.496-21.64 1.6882 6.5995 3.3765 13.199 5.0648 19.799 3.53-11.588 10.283-19.492 18.878-28.547-2.5324 6.9832-0.9209 13.276 0 18.878 3.2997-10.59 7.9808-18.187 14.734-27.626v24.403c4.4509-9.3621 8.9017-18.724 13.352-28.086-2.3788 8.7482-3.6067 15.655-3.6834 22.101 2.9161-9.6691 10.436-16.115 12.892-26.245-0.7674 9.8993 3.0696 18.417 4.6043 27.626 2.8394-10.667 7.06-20.182 13.353-29.928 0.15344 4.6042 0.30695 9.2086 0.46039 13.813 2.9161-7.674 11.357-13.736 14.273-21.41 0.14392 11.446 5.8322 12.815 11.511 20.029 0.8277-8.3064 9.1438-29.31 15.181-35.989 8.9274-4.253 29.331-17.459 33.09-20.695l1.9164-5.4745z" fill="#52630d"/>
  <path d="m604.14 255.62c-2.6046-10.093-11.395-16.604-13.674-27.348h7.8138c-1.3024-7.1626-2.6046-14.325-3.907-21.488 4.9921-4.5581 9.9843-2.6046 14.976-3.907-0.10852-8.5735 0.43408-21.054-2.6046-28.651 9.2247-5.7518 13.24-3.3643 22.139-2.6045 5.1006-11.721 18.36-19.721 22.139-29.302 11.198-2.6825 22.465-5.8604 35.488 0.65112-3.3641 3.7985-3.7982 6.9457-3.2556 12.372 7.7053-2.7131 28.759-0.86816 40.697 13.023-5.6434 0.21716-11.612-1.5193-16.93 0.65124 3.2558 4.7752 6.5115 9.5502 9.7672 14.325-4.3411 3.0387-8.682 6.0774-13.023 9.1161-0.65106 3.9069-1.3022 7.8138-1.9533 11.721-9.7673 3.4728-18.558 10.527-29.302 10.418 4.2325 3.0387 7.1628 7.3798 7.8137 13.023-8.2478 4.775-15.845 11.829-24.744 14.325-2.8216 7.9222-10.201 9.0076-12.372 16.93-8.899 2.8218-16.17-8.3563-22.79-5.2091l-5.2091 16.93-16.93-3.2556 5.8604-11.721z" fill="url(#bi)"/>
  <path d="m604.14 265.71c-7.8138-11.07-31.581-17.581-39.395-28.651-7.1626 1.9534-22.79-3.5813-24.092 1.6278-5.7518-5.5348-16.059-7.1273-20.808-10.926 0 0 2.6046-9.7672 0-11.07-2.279 2.2789-2.3875 1.3564-9.7672 5.0463-10.364-4.4495-7.8681-4.3409-15.953-9.4416 5.2092-5.6975 5.8604-7.3254 12.046-12.535-8.1937 2.3876-10.527 7.5426-20.511 7.3256-3.082-6.7715-5.3398-13.888-7.2313-20.553-6.4309-0.27808-8.7837 8.54e-4 -16.637 0.91211-1.7994-7.3348-2.133-9.4515-3.8727-17.343-5.5317-3.5428-11.823 0.69299-16.535-0.69324 0.34924-3.6285 0.70557-6.9025 1.8759-10.965 2.3694-1.8586 10.581-5.9849 16.167-6.9913 0.98175-3.3086 1.5773-5.849 2.3542-9.1998 7.5938 3.5282 42.147 7.7019 58.36 19.272 0.37842 3.91 1.0852 11.504 1.9534 16.604 1.6279-3.6899 1.6279-7.3798 2.9302-10.744 3.2559 2.062 14.814 4.6123 18.232 7.8138-2.6046 4.3409-3.2557 6.0774-3.907 8.465 2.2248-2.1705 4.124-4.1784 6.5116-5.5349 13.24 7.8138 40.48 41.348 53.72 49.162 3.6898 10.636 6.403 11.666 10.093 22.302l-5.5347 16.116z" fill="url(#bj)"/>
  <path d="m605.44 264.73c34.728-13.891 65.507-31.847 100.96-44.436 32.871-11.672 70.491-20.448 104.8-23.283 33.738-2.7875 89.322 16.885 103.53 24.744 14.44 7.9858 29.216 18.153 40.371 29.302-11.938 1.5194-23.876 4.6502-35.813 4.5581-16.983-9.0503-30.972-21.324-48.185-30.604 7.3798 6.7285 14.759 13.457 22.139 20.186-14.622-8.2216-28.322-15.983-39.72-26.046 2.7557 8.465 8.7348 16.93 11.721 25.395-11.938-7.1627-25.257-13.174-35.813-21.488 0.13806 5.8604 1.8876 11.49 4.558 17.581-5.6826-1.6574-11.596-5.8472-14.976-9.1161-5.8867 2.1046-11.543 5.5906-16.279 9.7672-7.5441-0.93396-17.39 2.2758-25.395 0.65124-0.74322 3.9069 0.81549 8.2742 2.6046 11.721-33.222-6.3276-66.309-7.9325-98.975-5.8605-25.503 1.6177-50.356 11.287-75.533 16.93z" fill="url(#bk)"/>
  <path d="m613.25 269.94c18.449-8.4651 36.628-17.741 55.348-25.395 20.202-8.2599 38.915-11.885 64.964-12.326 36.427-0.61646 66.98 18.319 89.069 41.765 13.973 14.832 23.876 40.438 25.685 56.512-6.63-6.2814-10.728-12.332-13.674-19.534-4.2161 4.2883-6.8207 9.4976-7.8138 15.628-4.0122-6.9586-6.1826-12.536-6.5114-20.186-1.9929 8.4322-2.6047 10.418-3.9069 15.628-3.9595-7.3403-7.6891-15.601-9.1162-24.092-2.0916 9.4253-5.7946 17.009-10.418 23.441-0.43414-6.9457-2.9401-12.05-1.3022-20.837-6.9656 6.5377-5.6433 12.155-8.465 18.232-1.7364-8.465-6.0052-15.779-5.2092-25.395-3.2558 5.8602-6.5115 11.721-9.7673 17.581-3.0388-11.287-8.84-20.271-9.1162-33.86-2.8216 9.1161-7.485 17.772-8.465 27.348-11.024-10.352-18.364-21.626-24.092-34.511 1.8417 5.6432 0.9209 9.9053 0 16.93-7.8533-1.6443-13.404-4.2092-21.488-9.7672-2.3874 1.7363-4.7752 3.4728-7.1625 5.2091-6.8734-3.5449-11.214-8.4713-13.023-18.232-4.3606 9.2478-8.7212 11.129-16.765 14.851-5.1766-0.64429-8.4123-0.76245-11.76-2.249 2.1704-6.7286 0.42725-7.4139 1.6771-14.2-6.2156 6.8076-3.9706 7.0541-10.589 10.293-7.8138 0.65112-28.98 1.0721-36.794 1.7233-0.43408-1.5193-0.86816-3.0387-1.3024-4.558z" fill="url(#bl)"/>
  <path d="m604.44 258.77c-26.816-15.157-75.946-42.147-113.65-43.192-40.078-1.111-79.964 11.959-93.547 21.091 7.5204-0.38379 14.35 0.61389 21.18 2.3021-7.0599 5.6019-9.5156 10.513-14.273 18.878 5.4485-6.5227 10.436-6.139 15.655-9.2085-1.458 5.3717-6.5995 8.6715-7.8273 14.734 6.5228-2.0719 10.283 0.46033 17.496-1.3814-2.1487 6.3694-7.7506 11.588-9.2087 18.418 5.6786-2.9928 11.818-2.3022 17.036-5.5253 0.076782 5.9856 2.2255 8.9784 3.6835 15.194 5.1415-3.3765 7.2902-9.5156 11.971-12.892 3.6835 5.8322 3.223 11.434 6.9065 17.496 3.837-8.4413 8.5948-13.429 11.511-21.18 1.3046 4.8345 5.8322 7.8273 7.3669 12.432 0.69067-7.2902 5.7554-14.12 6.9065-21.18 2.9928 11.127 2.9928 22.024 5.5252 32.691 0.38367-8.5948 1.9185-17.19 4.6043-25.784 0.30695 8.5179 1.5348 15.655 4.8345 23.482 2.7626-9.976 5.0648-18.571 4.3742-28.547 2.9161 8.4413 5.8322 16.882 8.7483 25.324-0.15356-6.2926-0.30701-12.585-0.46045-18.878 1.9952 4.2974 3.9904 8.5947 5.9856 12.892-1.5348-13.199-4.681-25.938-4.6044-39.597 3.4532 13.199 10.13 28.24 15.194 42.36-1.8418-10.897-2.072-21.333-3.9137-32.23 1.6603 1.4314 3.1626 1.7116 3.6834 2.5325 2.9161 8.5947 6.9833 14.197 14.043 22.331 0.61383-5.2183 2.6091-10.436 5.9856-14.273 3.223-0.9209 41.055-4.681 46.734-4.6042l8.0576-3.6836z" fill="url(#bm)"/>
  <path d="m350.28 272.58c9.0958-4.7668 46.011-19.45 79.054-26.672 18.219-3.9819 59.441-6.0571 77.986-4.3347 31.028 2.882 58.442 9.0597 89.291 14.892l-19.338 11.511c-22.273 2.2881-39.972 5.945-61.935 11.097-15.332 3.5966-34.602 9.6647-49.95 15.148-3.6835-6.446-8.9948-11.915-11.05-19.338-13.125 11.93-27.877 21.58-43.281 29.928 3.6835-4.6042 7.3669-9.2086 11.05-13.813-6.1391 1.6884-12.278 3.3765-18.417 5.0648 2.9161-6.2926 5.8322-12.585 8.7482-18.878-5.9857 3.9904-11.971 7.981-17.957 11.971 3.3765-4.4509 6.753-8.9017 10.13-13.353-9.9574 4.395-19.589 12.371-30.849 16.115 2.7626-2.9161 5.5252-5.8322 8.2878-8.7483-5.0648 1.8417-10.13 3.6835-15.194 5.5252-6.5019-4.0693-8.1202-9.441-16.576-16.115z" fill="url(#bn)"/>
  <path d="m552.87 305.74c-33.151 29.007-53.31 44.629-83.799 75.971-13.406 13.78-48.323 58.618-56.633 75.971-12.563 26.234-18.878 43.434-22.561 70.446 0.53943 6.7716 2.3812 13.218 5.5252 19.338 0.46039-3.5299 0.92084-7.0599 1.3813-10.59 1.8417 2.3022 3.6835 4.6044 5.5252 6.9066 1.1395-10.59-0.65118-21.18 0-31.77 2.1487 4.1439 4.2974 8.2878 6.446 12.432 2.358-4.4136 3.4138-9.804 4.1439-15.194 2.8696 4.795 7.8553 7.311 11.05 12.432-1.9162-7.3668-2.5302-14.734-1.8417-22.101 3.9904 3.9904 7.9808 7.9807 11.971 11.971l-7.8273-20.72c3.6834 4.2975 7.3669 8.5947 11.05 12.892-1.1116-4.902-1.572-9.6411-1.3813-15.194 4.4974 5.3623 7.8553 10.399 11.05 16.576-0.10693-6.4647-1.1906-12.278-2.7626-18.417 1.6882 3.3766 3.3765 6.753 5.0648 10.13l-5.9856-23.482c3.6451 5.8705 9.8226 9.2087 14.734 13.813-3.1463-5.2181-5.717-11.933-7.3669-18.417 4.0288 4.259 6.6763 8.0576 9.6691 13.813 2.0336-7.4437 0.61389-15.348 0.92084-23.022l9.6691 11.971c0.34528-5.4485-2.7626-10.436-4.1439-15.655 3.6835 5.3717 7.5972 9.5924 11.05 16.115-2.7626-12.048-6.5612-24.096-11.05-35.453 5.2566 6.9448 7.9808 15.041 11.971 22.561-0.95923-9.7842-3.9904-19.338-5.9856-29.007 3.9136 10.974 10.13 18.724 15.194 28.086-1.0743-4.4508-2.1487-8.9017-3.223-13.352 3.6834-1.0745 6.2158-1.1129 9.6691-0.46057-4.7962-9.4388-7.9808-19.338-11.971-29.007 4.6043 7.9808 9.2087 15.962 13.813 23.942-0.30695-5.5252-0.61389-11.05-0.9209-16.576 3.2231 0.76733 6.4461 1.5348 9.6691 2.3021 0.30695-3.6835 0.61389-7.3668 0.92084-11.05l11.971 3.6834c-1.3812-5.8322-2.7626-11.664-4.1438-17.496 3.8369 2.3022 5.4868 5.1799 7.3669 8.2878 2.3022-5.2181 4.6043-10.436 6.9064-15.655 1.6884 0.76733 3.3766 1.5347 5.0648 2.3021 0.26856-5.5636-0.49878-11.012 1.8417-14.273 0.7674-11.741 15.1-52.771 21.87-63.31l-3.9137-11.741z" fill="#3d4c00"/>
  <path d="m598.92 276.73c-3.6835 37.295-14.427 61.023-30.849 95.77-12.599 26.658-27.26 62.406-33.612 96.691-4.361 23.539 0.78564 66.331 6.9065 74.79 2.3021-2 2.4646-2.4285 6.1388-4.2188 2.986 6.2925 2.8776 10.766 6.4604 16.013-0.49817-5.3086 1.3669-8.1896 2.2367-11.478 1.3582 2.4091 12.776 26.305 12.776 26.305 1.809-4.9948 2.2647-9.5013 5.5388-15.31 2.0372 9.3622 7.1906 11.864 11.832 19.924-0.34448-12.66-1.6888-16.831 1.0597-25.909 2.1998 6.674 6.353 12.046 11.971 16.115l-9.2087-30.389c7.3111 6.674 15.599 11.72 24.863 16.115-4.6696-9.5249-7.0599-18.724-10.59-28.086 7.9901 3.9299 15.655 4.6042 23.482 6.9065-1.6882-7.3669-7.2087-38.997-12.432-51.108 5.4276 0.40002 8.9017-2.4557 13.352-3.6835-1.879-5.66-1.6417-11.32-3.6835-17.957 3.8369 1.2278 7.6738 2.4556 11.511 3.6834-1.0743-8.7482-1.3347-17.496-3.223-26.244 2.4558-5.3717 4.9114-10.744 7.3669-16.115-3.651-13.585-1.93-30.1-4.6042-44.662-10.1-7.7482-30.938-57.946-27.626-93.928-3.223-1.0743-6.446-2.1487-9.6691-3.2231z" fill="url(#bo)"/>
  <path d="m620.47 346.4c1.6217 15.405 2.8899 31.252-1.764 47.409 4 8.1668 6.0555 11.826 8.818 20.611-3.649 5.7827-6.1933 13.51-9.312 21.149-0.69928 9.8334-1.6196 23.202-9.1247 32.505 2.9167 5.2082 5.0156 10.041 7.9324 15.249-0.54169-1.7082-0.99487-2.9305-1.6913-4.5505 2.7152 0.51599 10.734-1.8187 13.073-4.8605l17-60.75c-8.3106-22.254-16.002-44.685-24.932-66.762z" fill-opacity=".127"/>
  <path d="m603.53 304.66c-1.3332 20.833 3.2517 43.333 0.50006 64-5.0816 38.166-13 76-19.5 114 5.6668-38.167 11.909-76.26 17-114.5 2.7419-20.594-0.16663-42.833 2-63.5z" fill="#3d4c00"/>
  <path d="m593.41 308.14c1.1262 7.1769 2.7828 13.028 4.6162 20.028-2.8333-0.5-5.6667-1-8.5001-1.5 1.3132 6 2.7147 12 5 18-2.6666-1.8332-5.3332-3.6666-8-5.5 0.81311 5.9218 1.803 11.49 3.5001 17.5-1.8333-0.5-3.6667-1-5.5001-1.5 0.64648 3.4218 4.1465 7.6819 5.5001 10.75-1.1667 0.33337-2.5834-0.33325-3.7501 0 0.10864 6.4218 1.4092 14.24-0.24994 20.75-4.7652 3.3584-5.202 4.3812-9.7019 10.214 2.8408 8.6389 4.1868 20.677 5.7019 28.786-4.7172 2.8814-4.5328 4.8686-9.2501 7.75 2.5708 9.8232 0.045349 25 3.5 35-3.4218 1.6968-9.4773 6.7804-13.75 5-2.3939 1.5681-5.6515 5.1086-7.25 6.5 3.625 8 0.5 37.75 2 49.75-2.0938-0.8125-7.0312-1.8438-8.6562-2.9688-2 3.7082-3.75 10.51-4.75 14.344-0.85413 0.573-1.677 1.3334-2.3125 2.0939-6-11.833-11.531-25.136-17.531-36.969 8.4999-38.833 17-77.667 25.5-116.5 10.333-13.833 19.871-28.02 30.205-41.854l3.2955-7.1464-9.5001-28.5 11-23.5 9.1569-10.955 3.7639 9.5204-1.6278 9.3436c2.4999 6 4.9116 13.945 8.2071 19.591-3.8333-3-6.7828-4.1438-10.616-8.0277z" fill="url(#bp)"/>
  <path d="m580.96 286.86c-20.259 50.648-66.302 90.245-91.166 139.51 4.6043-1.3044 5.5252 0.61389 8.2878 0.9209-9.5924 11.357-18.034 24.326-23.942 36.835 1.5348-0.15344 3.0695-0.30701 4.6043-0.46045-8.0576 12.585-14.043 25.4-16.576 39.137 3.53 0.61389 4.2974 3.0696 6.446 4.6044 0.69067 11.588-4.3741 28.47-2.7626 43.741 1.8417-3.53 3.6835-7.0601 5.5252-10.59 4.4509 7.7507 4.2974 16.652 9.2087 23.942-0.076721-5.6018 3.0695-9.5923 5.9856-13.352 3.6835 4.1438 2.3022 10.59 6.9065 13.813-1.3045-7.0602 1.5348-12.278 2.3022-18.418 4.4509 8.5948 6.5996 15.808 7.8274 23.022 4.3741 1.9952 5.9856 1.2278 9.6691 0.69067-0.1535-4.0671 0.61389-6.7529 0.92078-10.36 3.2232-0.38367 5.0648 2.6859 8.2879 2.3022 1.9952-4.1439 2.1486-7.8275 5.9855-12.432 2.3022-1.0743 4.6044-2.1487 6.9065-3.2232-2.1487-4.1438-4.2974-8.2877-6.446-12.432 3.0695 2.3022 6.1391 4.6042 9.2086 6.9065 3.2998-8.2111-0.76727-18.724 2.3022-29.468 2.6091 1.9951 5.2183 3.9905 7.8274 5.9856-1.9952-11.971-0.76746-24.403-5.9857-35.914 3.6834-3.0697 5.9857-7.2903 11.05-9.2087 6.8297 2.6859 10.436-2.4556 15.655-3.6835-3.6834-8.3644-1.8417-15.348-2.7626-23.022 4.7578-2.3789 8.5947-7.0599 12.892-10.59-0.61401-12.355-13.046-30.695-12.432-40.978 5.5252-3.1462 5.5252-8.5947 15.194-12.892 2.1487-11.664 1.0482-23.997-4.6043-39.137-6.6225-17.738 7.0599-36.834 10.59-55.252l-6.9066-1e-4z" fill="#55641a"/>
  <path d="m567.36 330.71c-14.378 31.113-30.296 60.558-42.603 92.454-10.202 26.441-16.794 55.331-24.925 82.555 8.8388-27.106 16.265-54.75 26.516-81.317 12.258-31.769 27.342-62.461 41.012-93.692z" fill="#404f04"/>
  <path d="m546.03 332.66l-18.875 44.25 5.3749-8v12.25l8.5001-11 3.7499 15.25 4.75-10.25 7.75 7.5 9.25-27 5 6.75 4.25-9.375 4.75 0.625-9.4999-32.5-25 11.5z" fill-opacity=".192"/>
  <path d="m589.16 262.13l3.2559 9.1161c-0.86829 1.3022-1.7364 2.6046-2.6046 3.9069 3.1108 11.938 11.287 23.876 16.93 35.813-5.8602-9.7672-11.721-19.534-17.581-29.302 2.9071 14.838 10.418 26.914 15.628 40.371-5.2092-8.0309-11.8-14.45-15.628-24.092 2.0652 17.824 7.8138 34.728 11.721 52.092-5.8209-8.7478-13.023-15.194-19.534-22.79 6.3866 13.28 7.248 25.178 14.325 37.767-6.5378-7.0836-13.076-15.318-18.232-25.395 3.907 11.504 6.8929 23.698 11.721 34.511-6.3339-10.583-12.207-21.396-16.93-34.511 2.6046 13.891 4.2883 27.782 7.8138 41.674-5.9131-12.766-9.9843-26.914-14.976-40.371 3.9596 15.845 6.9983 31.459 9.1162 47.534-4.3016-13.727-9.0634-25.612-14.976-38.418 2.6836 14.746 2.6046 29.953 3.9069 44.929-3.0386-9.5502-6.0774-19.1-9.1161-28.651-0.43408 11.287 0.51318 22.804-1.3022 33.86-1.4535-10.254-4.979-17.976-7.8138-27.999-1.2496 8.9254-3.1899 17.16-6.5115 25.395 0.052612-9.1293-0.81555-17.798-2.6046-26.697-1.0194 6.7812-4.3409 11.721-6.5115 17.581 1.7364-7.3798 2.0914-14.299 5.2092-22.139-5.3014 4.0845-7.3798 9.5502-11.07 14.325-1.3024-4.262-2.6046-11.747-3.907-16.93 2.8217-5.8602 4.7225-10.109 8.465-17.581-3.4728 4.3409-6.4852 9.6029-10.418 13.023 2.6046-9.7673 4.0581-19.074 7.8138-29.302-5.8998 4.0713-9.4975 11.366-15.628 14.976 3.6372-9.8463 7.7348-17.16 13.674-25.395-4.5317 3.7557-9.5239 6.3604-14.976 7.8138 3.624-6.0906 8.1688-11.721 14.325-17.581-6.0774 3.9069-12.155 7.8137-18.232 11.721 4.3542-6.3866 6.6364-10.241 12.372-14.325-5.4263 1.9535-10.853 3.9069-16.279 5.8604 10.596-11.576 26.396-28.25 46.52-39.792 9.3944-5.3879 31.17-9.3268 42.036-10.997z" fill="url(#bq)"/>
  <path d="m640.36 288.2c20.606 14.235 47.623 22.173 63.675 39.608 26.603 28.895 48.001 72.939 54.744 107.19 3.72 18.896 5.5156 39.069 4.5581 58.604-2.4961-2.3874-2.67-9.5741-6.4045-16.915-1.9391 7.2935-6.51 12.574-9.2231 13.985-8.6948-16.807-15.687-33.614-20.511-52.743 0.61615-20.744-4.3409-42.108-6.5114-63.162-5.1135 7.0398-6.5115 15.628-9.7673 23.441-3.3754-11.006-3.6546-17.522-1.3022-29.302-4.3284 8.8193-10.979 16.4-18.558 21.814-0.21692-9.2246-2.1368-16.746-0.65112-27.674-3.4888 3.3003-6.2035 4.898-11.395 6.1858-3.5159-14.573-5.0191-28.062-3.5813-42.325-3.1472 0.5426-6.2946 1.0852-9.4417 1.6278-5.2927-13.756-14.146-28.286-25.631-40.339z" fill="#37430d"/>
  <path d="m869.88 626.79c-39.827-34.375-82.532-71.37-121.37-100.93-27.968-21.29-50.157-51.808-71.83-80.499 25.292 27.571 46.795 54.448 74.687 76.641 44.93 35.748 101.66 78.021 149.52 119.13 45.855 39.391 94.564 78.908 135.51 123.13 39.137 42.263 70.435 85.659 91.076 139.32-26.627-59.858-67.854-101.92-112.08-147.38-45.149-46.4-96.383-87.009-145.52-129.42" fill-opacity=".347"/>
  <path d="m621.62 310.64c19.059 45.01 60.392 105.6 76.97 151.45 9.8483 27.241 14.734 56.173 18.194 84.91-2.7625 3.837-4.8345 6.7529-8.0575 10.13-0.6908 3.6067-1.036 7.3861-0.74823 10.302-3.1655 2.6858-7.7698 4.5083-9.3813 6.0431 3.6835 4.5276 4.8347 11.127 5.7554 16.806-4.3742 1.5348-8.2879 3.0696-12.432 7.3669-1.5349 5.8322-6.0625 9.8225-10.13 13.352-0.61389-5.9089-4.6812-10.897-7.3671-14.273-1.9951 1.765-5.1414 3.2997-8.7482 3.223-0.38361-5.3717-5.3717-13.506-6.9064-17.957-4.0672-0.84412-6.2925-1.6884-10.59-4.1439 0.38385-8.4413 0.076782-15.962-2.3021-23.942-4.2206-0.99756-7.0599-0.61389-11.971 0.46033 1.9952-6.3693 4.6811-12.969 8.7482-18.417-4.2974-0.30701-8.5948-0.61389-12.892-0.9209 0.30695-8.4413-0.99756-16.422 0.92078-25.324-3.3764-2.9928-6.5228-4.374-11.511-8.2877 3.7601-5.2183 4.988-8.825 5.0648-12.892-4.4509-7.0601-8.9017-14.12-13.353-21.18 7.6739-8.9785 8.338-21.196 8.5416-32.246 2.5563-6.438 5.3567-14.234 10.125-19.957-2.0433-8.8197-5.3571-13.329-8.814-21.386 3.8999-19.054 3.8209-58.167-4.4001-80.809l5.2835-2.3079z" fill="url(#br)"/>
  <path d="m629.59 333.89c16.263 27.106 33.162 55.108 43.841 84.499 13.128 36.134 20.742 74.01 27.577 112.08-8.1317-38.537-16.529-76.181-29.698-112.43-10.636-29.277-26.752-56.097-41.719-84.146z" fill="#3d4c00"/>
  <path d="m623.61 316.29c9.3926 20.436 21.002 40.283 31.166 59.174 8.5442 15.88 17.476 31.821 25.958 47.646-2.5616-0.34155-5.0378-1.2809-7.5994-3.1593-1.0817 5.1802-2.1632 9.3357-5.8063 12.979-5.6926-3.6432-10.527-6.0415-14.004-12.979-3.3126-6.6095-0.22766-21.916-1.3662-33.13-5.4648-2.3909-8.1973-4.2694-11.271-9.2219 0.73999-5.7494 0.45544-11.84-0.34143-17.76-5.6356-5.6356-10.93-9.5634-17.419-13.32-0.82538-11.414-2.7608-22.656-6.148-33.557l6.8311 3.3301z" fill-opacity=".152"/>
  <path d="m622.37 276.45c21.488-0.86829 61.854-3.847 82.731-0.12769 54.024 9.6245 81.322 19.42 127.02 47.917 21.394 13.341 49.522 46.133 61.125 68.115-2.2844-0.91394-5.0331-4.6145-7.782-6.7668 4.3279 7.3348 8.2142 25.016 8.607 31.932-4.3299-4.1389-7.3459-4.994-11.895-5.6301 0.66809 8.0383-0.85327 14.763-3.907 21.488-5.4261-10.201-10.852-20.403-16.279-30.604 1.0984 9.5576 0.88312 18.021-1.3022 26.046-7.8139-21.054-19.35-37.948-23.442-63.162 0.015076 13.495-2.816 18.232-5.2092 27.348-3.7029-6.07-6.0924-13.891-6.5115-20.837-6.9457-0.63049-12.797-3.0124-20.837-9.1161-2.2176 3.316-5.5848 5.7018-9.116 7.8137-4.762-9.1218-11.713-17.641-18.883-25.395-2.3952 4.8865-3.3671 8.8424-4.5581 13.674l-10.418-18.232c-4.558 0.65112-9.116 1.3022-13.674 1.9534-0.21704-6.7285-0.43408-13.457-0.65106-20.186-5.0242 5.3304-10.358 8.6486-16.93 10.418-5.6146-9.3013-13.551-19.067-21.488-26.046-2.6046 2.8217-5.2092 5.6433-7.8138 8.465-2.9428-8.9613-3.7185-18.077-3.2556-27.348-7.9384 2.5343-13.09 5.0686-20.1 9.4606-8.0459-3.141-38.58-13.692-51.457-16.124l-3.9766-5.0576z" fill="url(#bs)"/>
  <path d="m635.25 291c46.666 24.092 105.64 49.082 149.9 76.612 18.901 11.756 33.924 29.506 49.488 45.58 10.916 11.274 19.969 24.31 29.953 36.464-4.0313 4.4623-8.682 6.4476-13.023 7.8138-1.3024-1.3022-2.6046-2.6046-3.907-3.9069-2.1736 2.7152-3.5733 3.2631-7.45 4.4303l-5.573-9.6395c-0.49792 4.1559-0.99597 6.2993-1.8034 9.8359-3.6276 1.3294-9.7322 1.1107-14.134-0.34631-0.062195-7.64-0.74377-15.125-2.1992-22.456-0.4447 7.7432-0.57983 14.403-3.1918 20.908-4.1133-0.5603-13.18-4.3715-16.984-6.4796-0.40381-8.3815 1.05-15.215-0.90173-22.822-5.8116 0.11572-9.2626 0.076538-16.293-1.1044-2.5413-5.051-3.3992-22.235-3.096-29.627-2.4481 5.2716-3.9675 10.388-4.558 16.279-16.92-14.137-25.791-25.487-31.255-37.767-6.5418-3.6245-11.226-3.5334-18.232-3.907-22.516-25.797-53.701-54.69-86.743-79.868z" fill="url(#bt)"/>
  <path d="m633.44 278.41c35.817 7.1439 72.428 14.494 106.14 28 34.01 13.626 68.703 30.866 97.021 53.394 20.518 16.323 37.808 41.232 49.487 63.162l-5.2092 17.581c-4.6506-0.28088-8.9916-1.181-13.023-4.5581-5.4262 0.43408-10.852 0.86829-16.279 1.3024-5.9465-10.514-8.4871-26.601-3.907-37.116-2.7928 4.7718-9.6107 6.7573-13.023 7.8137-1.7364-5.2091-3.4728-10.418-5.2092-15.628-3.8462 1.2065-9.2405 0.86499-14.325-1.9534-1.864-6.5721-7.4436-12.835-13.023-16.93-2.8215 1.3024-5.6434 2.6046-8.4649 3.9069-47.268-36.296-99.353-66.9-158.88-91.812-0.43414-2.3876-0.86822-4.7752-1.3024-7.1627z" fill="url(#bu)"/>
  <path d="m617.81 271.24c7.4946 3.8643 18.989 11.798 25.851 19.769 14.627 16.99 31.403 42.023 38.613 65.243 7.5494 24.314 10.741 40.443 13.349 65.73-6.8338-5.7946-11.135-12.05-14.976-20.837-1.3714 6.0742-3.6636 8.6952-6.1859 12.697-3.1868-2.3644-8.6713-7.4889-8.6395-14.69 0.033997-7.7029 3.7426-15.871 3.3117-23.807-5.923-2.0247-9.0834-4.2797-12.934-8.8368 1.5961-4.8573 3.4223-9.254 4.7882-15.953-4.4728-5.8144-10.327-9.3268-16.871-11.918-1.4272-3.4738-2.8543-6.9475-4.2815-10.421-0.57666-4.9613 0.68835-9.9226 1.0326-14.884-1.3832 4.8156-2.7664 9.4008-4.1496 14.446-8.2556-4.1952-16.972-8.1603-18.551-12.356-2.3876 1.5194-10.991 2.8086-13.378 4.328-0.10846-9.8758 8.078-26.403 6.8184-41.804l6.2046-6.707z" fill="url(#bv)"/>
  <path d="m1154.1 886.24c-39.011-52.634-83.485-105.96-130.04-154.19-33.948-35.166-174.62-147.58-216.73-178.34 39.837 33.438 181.99 149.76 217.35 186.39 45.138 46.759 87.517 95.567 129.42 146.14z" fill="url(#bw)"/>
  <path d="m616.86 246.92c13.73-27.636 29.843-55.242 49.841-80.317-10.042 17.178-19.569 29.574-28.627 46.376-5.5548 10.303-14.142 24.513-21.213 33.941z" fill="#526701"/>
  <path d="m605.53 252.41c-16.25-14.5-31.618-30.133-48.75-43.5-16.618-12.966-35-23.667-52.5-35.5 16.5 11.917 33.463 23.237 49.5 35.75 17.713 13.821 34.5 28.833 51.75 43.25z" fill="#3d4c00"/>
  <path d="m575.53 277.66c-4.4999 6.1668-10.2 11.739-13.5 18.5-3.5333 7.2389-4.6667 15.667-7 23.5 1.8333-8.6666 1.7562-18.33 5.4999-26 3.0896-6.3298 10-10.667 15-16z" fill="#4f600c"/>
  <path d="m605.53 273.66l-7.4999-2-10 2.5 6.4999-6 2.5001-6 5.4999 5.5 3 6z" fill="url(#bx)"/>
  <path d="m608.53 274.66l5.5001 6-3 6.5 10.5 0.5 1-12-14-1z" fill="url(#by)"/>
  <path d="m603.53 280.16l-3 13.5 4-1.5 1.5001 6 10.5 2.5-4.4999-10.5-8.5001-10z" fill="url(#bz)"/>
  <path d="m598.53 276.16l-10-4 1.5001 3.5-6.5001 1-3 7 5.5001-5.5v6.5l5-5 7.4999-3.5z" fill="url(#ca)"/>
  <path d="m604.49 269.19l-7.071-12.021-8.8389-8.4852 3.5356-2.1213 0.3536-11.314-3.8892-3.889 5.3033-8.4854 11.314 12.021h3.5355l5.3034 7.7782-3.8892 11.314-2.1213 14.849-3.5356 0.3535z" fill="url(#cb)"/>
  <path d="m607.31 270.96l-3.8891-12.021 3.8891-8.4852 5.3033 3.889-4.2426 6.7175 2.1213 12.021-3.1821-2.1212z" fill="url(#cc)"/>
  <path d="m604.03 274.66l10.5-8.5 2-7-8.4999 5.5-4-1v11z" fill="url(#cd)"/>
  <path d="m601.03 276.66l-5 4.5 2.4999 9 7.5001-5v-9.5l-5 1z" fill="url(#ce)"/>
  <path d="m613.33 272.02l6.3639-7.7781h6.364l1.4142-2.475 7.4246 3.182-4.9496 6.3639-18.385 4.5962 1.7679-3.889z" fill="url(#cm)"/>
  <path d="m606.61 272.73l5.3033-1.0607 0.3536 5.6569-1.0606 5.3032-4.2427-4.5962-2.1214-0.707 1.7678-4.5962z" fill="url(#dn)"/>
 </g>
</svg>
